<svg id="Layer_1" data-name="Layer 1" xmlns="http://www.w3.org/2000/svg" viewBox="0 0 4822.91 2565.23"><defs><style>.cls-1{fill:none;stroke:#a0a2bc;stroke-miterlimit:10;stroke-opacity:0.05;stroke-width:2.92px;}</style></defs><title>mainwave3</title><path class="cls-1" d="M0,2551.18c209.82-212.59,331.77-92.24,541.59-304.84s87.88-333,297.64-545.49S1171,1608.61,1380.82,1396s87.88-333,297.7-545.55,331.77-92.25,541.66-304.91S2308.05,212.6,2517.88,0" transform="translate(1.04 10.03)"/><path class="cls-1" d="M831.73,2542.18c209.82-212.59,331.77-92.24,541.59-304.84s87.88-333,297.64-545.49,331.77-92.24,541.59-304.84,87.88-333,297.7-545.55S2842,749.21,3051.91,536.55,3139.78,203.6,3349.61-9" transform="translate(1.04 10.03)"/><path class="cls-1" d="M1423.52,2542.18c209.83-212.59,331.77-92.24,541.6-304.84s87.87-333,297.63-545.49,331.77-92.24,541.6-304.84,87.87-333,297.7-545.55,331.76-92.25,541.65-304.91S3731.57,203.6,3941.4-9" transform="translate(1.04 10.03)"/><path class="cls-1" d="M2301,2542.18c209.82-212.59,331.77-92.24,541.59-304.84s87.88-333,297.64-545.49S3472,1599.61,3681.84,1387s87.88-333,297.7-545.55,331.77-92.25,541.66-304.91S4609.07,203.6,4818.9-9" transform="translate(1.04 10.03)"/><path class="cls-1" d="M621.36,2542.18c209.83-212.59,331.77-92.24,541.6-304.84s87.87-333,297.63-545.49,331.77-92.24,541.6-304.84,87.87-333,297.7-545.55,331.76-92.25,541.65-304.91S2929.41,203.6,3139.24-9" transform="translate(1.04 10.03)"/><path class="cls-1" d="M222.56,2551.18c209.83-212.59,331.77-92.24,541.6-304.84s87.87-333,297.63-545.49,331.77-92.24,541.6-304.84,87.87-333,297.7-545.55,331.76-92.25,541.65-304.91S2530.61,212.6,2740.44,0" transform="translate(1.04 10.03)"/><path class="cls-1" d="M1672,2551.18c209.82-212.59,331.77-92.24,541.59-304.84s87.88-333,297.64-545.49S2843,1608.61,3052.81,1396s87.88-333,297.7-545.55,331.77-92.25,541.66-304.91S3980,212.6,4189.87,0" transform="translate(1.04 10.03)"/><path class="cls-1" d="M0,1964.76c161.59-163.73,255.51-71,417.1-234.77s67.68-256.42,229.22-420.1,255.51-71,417.1-234.77S1131.1,818.7,1292.69,655s255.51-71,417.15-234.82S1777.51,163.73,1939.11,0" transform="translate(1.04 10.03)"/><path class="cls-1" d="M2879.79,2542.18c161.59-163.72,255.5-71,417.1-234.77s67.67-256.42,229.22-420.1,255.51-71,417.1-234.77,67.67-256.42,229.27-420.15,255.51-71,417.15-234.82,67.67-256.42,229.27-420.15" transform="translate(1.04 10.03)"/><path class="cls-1" d="M1939.11,2554.18c209.82-212.59,331.77-92.24,541.59-304.84s87.88-333,297.64-545.49,331.77-92.24,541.59-304.84,87.88-333,297.7-545.55,331.77-92.25,541.66-304.91S4247.16,215.6,4457,3" transform="translate(1.04 10.03)"/><path class="cls-1" d="M1150,2554.18c209.82-212.59,331.77-92.24,541.59-304.84s87.88-333,297.64-545.49S2321,1611.61,2530.82,1399s87.88-333,297.7-545.55,331.77-92.25,541.66-304.91S3458.05,215.6,3667.88,3" transform="translate(1.04 10.03)"/><path class="cls-1" d="M3306.53,2542.18c126-127.69,199.28-55.4,325.31-183.1s52.78-200,178.77-327.65,199.28-55.41,325.31-183.11,52.79-200,178.82-327.68,199.27-55.41,325.34-183.14,52.78-200,178.82-327.69" transform="translate(1.04 10.03)"/><path class="cls-1" d="M0,1532.37c126-127.69,199.28-55.4,325.31-183.1s52.78-200,178.77-327.65,199.28-55.41,325.31-183.11,52.79-200,178.82-327.68,199.27-55.41,325.34-183.14S1386.33,127.7,1512.37,0" transform="translate(1.04 10.03)"/><path class="cls-1" d="M83.31,2114.69c161.59-163.73,255.51-71,417.1-234.78s67.68-256.41,229.22-420.1,255.51-71,417.1-234.77S1214.41,968.62,1376,804.89s255.51-71,417.15-234.81,67.67-256.42,229.27-420.15" transform="translate(1.04 10.03)"/><path class="cls-1" d="M0,1109c91-92.16,143.83-40,234.79-132.16s38.1-144.34,129-236.48,143.83-40,234.79-132.16,38.1-144.34,129.06-236.51,143.83-40,234.82-132.18S1000.6,95.17,1091.56,3" transform="translate(1.04 10.03)"/><path class="cls-1" d="M3727.34,2554.18c91-92.16,143.83-40,234.79-132.16s38.1-144.34,129-236.48,143.83-40,234.8-132.15S4364.05,1909,4455,1816.88s143.83-40,234.82-132.19,38.09-144.34,129.06-236.51" transform="translate(1.04 10.03)"/><path class="cls-1" d="M0,728.3c60.64-61.44,95.88-26.65,156.52-88.1s25.4-96.22,86-157.65,95.88-26.65,156.52-88.1,25.4-96.22,86-157.66S581,210.13,641.64,148.67,667,52.44,727.68-9" transform="translate(1.04 10.03)"/><path class="cls-1" d="M4093.15,2542.18c60.64-61.44,95.88-26.66,156.52-88.1s25.4-96.22,86-157.65,95.88-26.66,156.52-88.1,25.4-96.23,86-157.67,95.88-26.66,156.54-88.12,25.4-96.22,86-157.66" transform="translate(1.04 10.03)"/><path class="cls-1" d="M0,518c42.36-42.92,67-18.62,109.33-61.54s17.74-67.21,60.08-110.11,67-18.63,109.33-61.54,17.74-67.21,60.1-110.13,67-18.62,109.34-61.55S465.92,45.92,508.28,3" transform="translate(1.04 10.03)"/><path class="cls-1" d="M0,332.37c27.09-27.44,42.83-11.9,69.92-39.35s11.35-43,38.43-70.43,42.83-11.91,69.92-39.36,11.35-43,38.44-70.43,42.83-11.91,69.93-39.37S298,30.45,325.07,3" transform="translate(1.04 10.03)"/><path class="cls-1" d="M4493.75,2551.18c27.09-27.45,42.84-11.91,69.93-39.36s11.34-43,38.42-70.42,42.84-11.91,69.93-39.36,11.34-43,38.43-70.43,42.84-11.91,69.93-39.37,11.35-43,38.44-70.43" transform="translate(1.04 10.03)"/></svg>