<svg id="Layer_1" data-name="Layer 1" xmlns="http://www.w3.org/2000/svg" viewBox="0 0 478.07 474.23"><defs><style>.cls-1{fill:#231f20;}</style></defs><title>logoTechtime</title><path class="cls-1" d="M271,69.19l3.6-4.5A92,92,0,0,1,282.29,57a72.93,72.93,0,0,1,12.82-8.1,35.91,35.91,0,0,1,18.23-3.6,25,25,0,0,1,6.75.9,19.62,19.62,0,0,1,5,2.48,8.42,8.42,0,0,1,3.15,4.72q24.3-5.84,49.05-10.57t47.7-7a332.51,332.51,0,0,1,43.2-1.57A160.84,160.84,0,0,1,503.69,39Q519,43.09,528.21,51.19a29.32,29.32,0,0,1,10.13,20.7,75.82,75.82,0,0,1-.45,8.1c-.61,2.41-1.28,4.81-2,7.2a23.77,23.77,0,0,1-3.82,7.2,8.62,8.62,0,0,1-6.53,3.83q-3.82.23-8.77-4.73-4.05-4-20.7-8.32t-44.78-5.63q-28.12-1.35-66.6,1.8t-86.17,14.4q-15.76,22.52-32.4,52t-30.6,56.47q-16.2,31.51-32,63.9-23.86,47.71-38,81.68T145,408q-9,34.2-10.8,51.53t-.68,25q1.13,7.65,3.38,9.68a5.54,5.54,0,0,1,1.8,5.17,10.45,10.45,0,0,1-2.93,5.4,14.72,14.72,0,0,1-4.27,2.7,17,17,0,0,1-5.4.9q-8.1-.45-13-5.4a30.83,30.83,0,0,1-7.43-12.6,72.25,72.25,0,0,1-3.15-17.1,163.64,163.64,0,0,1-.22-19.35q1.35-22.95,8.55-51.75,7.18-34.2,22.72-74T168,249q18.9-39.37,39.15-75.38T243.59,111q-43.67,16.2-72.68,31.73t-46.8,30.15q-17.77,14.63-26.1,27.9T87.44,226a57.36,57.36,0,0,0-.23,22,102.09,102.09,0,0,0,5.18,18q3.14,7.88,5.4,13.27t.45,8.1q-3.61,5-10.13,4.05a22.51,22.51,0,0,1-11.47-4.95,22.82,22.82,0,0,1-5.85-6.3,47.94,47.94,0,0,1-3.6-6.75,32,32,0,0,1-2.7-7.65q-6.75-23.38-2.7-43.65a108.94,108.94,0,0,1,15.52-38,147.86,147.86,0,0,1,29-32.63,294.72,294.72,0,0,1,37.57-27,370.56,370.56,0,0,1,41.18-21.6q21.14-9.45,40-16.65c.29-.29.52-.45.67-.45s.37-.14.68-.45q9.88-4,21.15-8.1T271,69.19Zm-89.1,50a13.09,13.09,0,0,1,1.57-.67,11.7,11.7,0,0,0,1.58-.68,32.08,32.08,0,0,1,3.15-1.8,53.7,53.7,0,0,0,6.52-2.92q2.93-1.57,5.63-2.93,23.38-10.8,36.45-16.2c2.39-.9,4.34-1.64,5.85-2.25s2.84-1.19,4.05-1.8a3.71,3.71,0,0,1,1.57-.45,1.51,1.51,0,0,0,1.13-.45,1.29,1.29,0,0,0,.9-.45,66.09,66.09,0,0,0-7.2,1.8,3.93,3.93,0,0,1-1.8.45,4.06,4.06,0,0,0-1.8.45,3.93,3.93,0,0,1-1.8.45l-1.8.9c-2.41.61-4.88,1.28-7.43,2s-5,1.57-7.42,2.47q-7.67,2.7-15.3,5.63t-15.3,6.07l-3.6,1.8-1.8.9-1.8.9a33.46,33.46,0,0,0-3.83,1.8,28.81,28.81,0,0,1-3.82,1.8,40.33,40.33,0,0,0-7.2,3.6l-1.8.9-1.8.9a9.55,9.55,0,0,1-3.6,1.8q-6.75,4.05-13.28,8.1t-12.82,8.1q-6.31,4.52-11.48,8.55t-10.12,8.55q-4.52,4-8.33,7.88t-7,7.42c-2.11,2.41-3.83,4.5-5.18,6.3s-2.63,3.46-3.82,4.95a27.17,27.17,0,0,0-1.8,3.15,1.29,1.29,0,0,0-.45.9.4.4,0,0,1-.45.45,29.79,29.79,0,0,1,1.8-2.47,22.76,22.76,0,0,1,1.8-2,3.39,3.39,0,0,0,.67-.9,3.67,3.67,0,0,1,.68-.9l1.8-1.8c1.49-1.49,2.77-2.84,3.82-4.05a30.63,30.63,0,0,1,3.83-3.6q7.19-6.28,15.3-12.6a166.85,166.85,0,0,1,15.3-11.25q7.64-4.94,15.3-9.45t14.62-8.32q7-3.82,13.73-7.43a10.14,10.14,0,0,1,3.6-1.8,12.54,12.54,0,0,0,1.57-.9A17.77,17.77,0,0,1,181.94,119.14Zm66.15,8.55q-20.25,32.4-37.8,63.45-9,15.31-16.65,30.15t-14.85,29.25q-28.35,57.16-43.65,101.7-3.62,11.25-6.75,21.15t-5.4,18.9q-.92,4.5-1.8,8.55t-1.8,8.1a28.49,28.49,0,0,0-.68,3.6,32.5,32.5,0,0,1-.67,3.6,5,5,0,0,1-.23,1.58,5,5,0,0,0-.22,1.57,7.4,7.4,0,0,1-.23,1.8,7.39,7.39,0,0,0-.22,1.8q-.92,6.3-1.13,11t-.22,7.87v6.75c.29-2.4.52-4.57.67-6.52s.37-4.13.68-6.53l2.7-13.5c.59-2.4,1.12-4.65,1.57-6.75s1-4.35,1.58-6.75L127,395q8.53-26.55,19.8-54.45,5.83-13.5,11.47-27T169.79,287q6.28-13,11.92-25.65T193.19,237q11.24-23.83,21.15-43.87t17.55-34.43q7.19-14.85,12.15-23Zm281.7-50.85A19.51,19.51,0,0,0,528.44,66a28.23,28.23,0,0,0-6.3-9.9,28.71,28.71,0,0,0-4.73-3.82c-1.65-1-3.23-2-4.72-2.93a29,29,0,0,0-10.35-3.6,59.39,59.39,0,0,0-9.45-1.8c-3-.29-5.56-.45-7.65-.45h-6.75a27.83,27.83,0,0,0,3.6.68,33.38,33.38,0,0,1,3.6.67l6.75,1.35c2.39.61,4.57,1.21,6.52,1.8s3.83,1.21,5.63,1.8q2.7,1.35,5.17,2.48a48,48,0,0,1,4.73,2.47q2.24,1.35,4,2.7a16.21,16.21,0,0,1,3.15,3.15,22.15,22.15,0,0,1,4.5,6.08c.9,2,1.64,3.68,2.25,5.17.29.9.52,1.58.67,2a5,5,0,0,1,.23,1.57,1.22,1.22,0,0,0,.45.9Z" transform="translate(-60.27 -34.16)"/></svg>